<mxfile host="app.diagrams.net" modified="2023-07-11T15:48:29.969Z" agent="Mozilla/5.0 (Windows NT 10.0; Win64; x64) AppleWebKit/537.36 (KHTML, like Gecko) Chrome/114.0.0.0 Safari/537.36" version="21.6.2" etag="Z8sfNU6aoPrewNcgiCGl" type="github">
  <diagram name="Страница 1" id="TjvyOf50N8QfeYJ4niOo">
    <mxGraphModel>
      <root>
        <mxCell id="0" />
        <mxCell id="1" parent="0" />
      </root>
    </mxGraphModel>
  </diagram>
</mxfile>
